<mxfile host="app.diagrams.net" agent="Mozilla/5.0 (X11; Linux x86_64) AppleWebKit/537.36 (KHTML, like Gecko) Chrome/134.0.0.0 Safari/537.36" version="26.2.13">
  <diagram name="Page-1" id="52a04d89-c75d-2922-d76d-85b35f80e030">
    <mxGraphModel dx="2603" dy="835" grid="1" gridSize="10" guides="1" tooltips="1" connect="1" arrows="1" fold="1" page="1" pageScale="1" pageWidth="1100" pageHeight="850" background="none" math="0" shadow="0">
      <root>
        <mxCell id="0" />
        <mxCell id="1" parent="0" />
        <mxCell id="LLEbzpNAezLbrJG5FlfY-4" value="" style="rounded=0;whiteSpace=wrap;html=1;" parent="1" vertex="1">
          <mxGeometry x="1820" y="20" width="620" height="760" as="geometry" />
        </mxCell>
        <mxCell id="LLEbzpNAezLbrJG5FlfY-5" value="" style="rounded=0;whiteSpace=wrap;html=1;" parent="1" vertex="1">
          <mxGeometry x="420" y="20" width="1370" height="760" as="geometry" />
        </mxCell>
        <mxCell id="LLEbzpNAezLbrJG5FlfY-3" value="" style="rounded=0;whiteSpace=wrap;html=1;" parent="1" vertex="1">
          <mxGeometry x="-89" y="20" width="460" height="760" as="geometry" />
        </mxCell>
        <mxCell id="LLEbzpNAezLbrJG5FlfY-7" value="&lt;font style=&quot;font-size: 48px;&quot;&gt;Desenvolvimento&lt;/font&gt;" style="text;html=1;align=center;verticalAlign=middle;whiteSpace=wrap;rounded=0;" parent="1" vertex="1">
          <mxGeometry x="-89" y="20" width="459" height="110" as="geometry" />
        </mxCell>
        <mxCell id="LLEbzpNAezLbrJG5FlfY-8" value="&lt;font style=&quot;font-size: 48px;&quot;&gt;Integração Contínua&lt;/font&gt;" style="text;html=1;align=center;verticalAlign=middle;whiteSpace=wrap;rounded=0;" parent="1" vertex="1">
          <mxGeometry x="420" y="20" width="1370" height="110" as="geometry" />
        </mxCell>
        <mxCell id="LLEbzpNAezLbrJG5FlfY-9" value="&lt;font style=&quot;font-size: 48px;&quot;&gt;Entrega Contínua&lt;/font&gt;" style="text;html=1;align=center;verticalAlign=middle;whiteSpace=wrap;rounded=0;" parent="1" vertex="1">
          <mxGeometry x="1820" y="20" width="620" height="120" as="geometry" />
        </mxCell>
        <mxCell id="LLEbzpNAezLbrJG5FlfY-17" style="edgeStyle=orthogonalEdgeStyle;rounded=0;orthogonalLoop=1;jettySize=auto;html=1;entryX=0;entryY=0.5;entryDx=0;entryDy=0;" parent="1" source="LLEbzpNAezLbrJG5FlfY-10" target="LLEbzpNAezLbrJG5FlfY-13" edge="1">
          <mxGeometry relative="1" as="geometry" />
        </mxCell>
        <mxCell id="LLEbzpNAezLbrJG5FlfY-10" value="&lt;font style=&quot;font-size: 18px;&quot;&gt;Desenvolvedor&lt;/font&gt;" style="shape=umlActor;verticalLabelPosition=bottom;verticalAlign=top;html=1;outlineConnect=0;" parent="1" vertex="1">
          <mxGeometry x="-14.5" y="210" width="30" height="60" as="geometry" />
        </mxCell>
        <mxCell id="LLEbzpNAezLbrJG5FlfY-63" style="edgeStyle=orthogonalEdgeStyle;rounded=0;orthogonalLoop=1;jettySize=auto;html=1;exitX=1;exitY=0.5;exitDx=0;exitDy=0;entryX=0;entryY=0.5;entryDx=0;entryDy=0;" parent="1" source="LLEbzpNAezLbrJG5FlfY-13" target="LLEbzpNAezLbrJG5FlfY-37" edge="1">
          <mxGeometry relative="1" as="geometry" />
        </mxCell>
        <mxCell id="LLEbzpNAezLbrJG5FlfY-13" value="" style="rounded=1;whiteSpace=wrap;html=1;" parent="1" vertex="1">
          <mxGeometry x="176.5" y="195" width="120" height="90" as="geometry" />
        </mxCell>
        <mxCell id="LLEbzpNAezLbrJG5FlfY-18" value="&lt;font style=&quot;font-size: 24px;&quot;&gt;Commit&lt;/font&gt;" style="text;html=1;align=center;verticalAlign=middle;whiteSpace=wrap;rounded=0;" parent="1" vertex="1">
          <mxGeometry x="45.5" y="200" width="100" height="40" as="geometry" />
        </mxCell>
        <mxCell id="LLEbzpNAezLbrJG5FlfY-19" value="&lt;font style=&quot;font-size: 24px;&quot;&gt;GitHub&lt;/font&gt;" style="text;html=1;align=center;verticalAlign=middle;whiteSpace=wrap;rounded=0;" parent="1" vertex="1">
          <mxGeometry x="186.5" y="220" width="100" height="40" as="geometry" />
        </mxCell>
        <mxCell id="LLEbzpNAezLbrJG5FlfY-64" style="edgeStyle=orthogonalEdgeStyle;rounded=0;orthogonalLoop=1;jettySize=auto;html=1;exitX=1;exitY=0.5;exitDx=0;exitDy=0;entryX=0;entryY=0.5;entryDx=0;entryDy=0;" parent="1" source="LLEbzpNAezLbrJG5FlfY-37" target="LLEbzpNAezLbrJG5FlfY-39" edge="1">
          <mxGeometry relative="1" as="geometry" />
        </mxCell>
        <mxCell id="LLEbzpNAezLbrJG5FlfY-37" value="" style="rounded=1;whiteSpace=wrap;html=1;" parent="1" vertex="1">
          <mxGeometry x="480" y="195" width="120" height="90" as="geometry" />
        </mxCell>
        <mxCell id="LLEbzpNAezLbrJG5FlfY-38" value="&lt;font style=&quot;font-size: 24px;&quot;&gt;Build&lt;/font&gt;" style="text;html=1;align=center;verticalAlign=middle;whiteSpace=wrap;rounded=0;" parent="1" vertex="1">
          <mxGeometry x="490" y="220" width="100" height="40" as="geometry" />
        </mxCell>
        <mxCell id="LLEbzpNAezLbrJG5FlfY-65" style="edgeStyle=orthogonalEdgeStyle;rounded=0;orthogonalLoop=1;jettySize=auto;html=1;exitX=0.5;exitY=1;exitDx=0;exitDy=0;entryX=0.5;entryY=0;entryDx=0;entryDy=0;" parent="1" source="LLEbzpNAezLbrJG5FlfY-39" target="LLEbzpNAezLbrJG5FlfY-41" edge="1">
          <mxGeometry relative="1" as="geometry" />
        </mxCell>
        <mxCell id="LLEbzpNAezLbrJG5FlfY-69" style="edgeStyle=orthogonalEdgeStyle;rounded=0;orthogonalLoop=1;jettySize=auto;html=1;exitX=1;exitY=0.5;exitDx=0;exitDy=0;entryX=0;entryY=0.5;entryDx=0;entryDy=0;" parent="1" source="LLEbzpNAezLbrJG5FlfY-39" target="LLEbzpNAezLbrJG5FlfY-49" edge="1">
          <mxGeometry relative="1" as="geometry" />
        </mxCell>
        <mxCell id="LLEbzpNAezLbrJG5FlfY-39" value="" style="rounded=1;whiteSpace=wrap;html=1;" parent="1" vertex="1">
          <mxGeometry x="680" y="195" width="120" height="90" as="geometry" />
        </mxCell>
        <mxCell id="LLEbzpNAezLbrJG5FlfY-40" value="&lt;font style=&quot;font-size: 24px;&quot;&gt;Test/QA&lt;/font&gt;" style="text;html=1;align=center;verticalAlign=middle;whiteSpace=wrap;rounded=0;" parent="1" vertex="1">
          <mxGeometry x="690" y="220" width="100" height="40" as="geometry" />
        </mxCell>
        <mxCell id="LLEbzpNAezLbrJG5FlfY-66" style="edgeStyle=orthogonalEdgeStyle;rounded=0;orthogonalLoop=1;jettySize=auto;html=1;exitX=0.5;exitY=1;exitDx=0;exitDy=0;entryX=0.5;entryY=0;entryDx=0;entryDy=0;" parent="1" source="LLEbzpNAezLbrJG5FlfY-41" target="LLEbzpNAezLbrJG5FlfY-43" edge="1">
          <mxGeometry relative="1" as="geometry" />
        </mxCell>
        <mxCell id="LLEbzpNAezLbrJG5FlfY-41" value="" style="rounded=1;whiteSpace=wrap;html=1;" parent="1" vertex="1">
          <mxGeometry x="680" y="355" width="120" height="90" as="geometry" />
        </mxCell>
        <mxCell id="LLEbzpNAezLbrJG5FlfY-42" value="&lt;font style=&quot;font-size: 24px;&quot;&gt;Test Unid&lt;/font&gt;" style="text;html=1;align=center;verticalAlign=middle;whiteSpace=wrap;rounded=0;" parent="1" vertex="1">
          <mxGeometry x="690" y="380" width="100" height="40" as="geometry" />
        </mxCell>
        <mxCell id="LLEbzpNAezLbrJG5FlfY-67" style="edgeStyle=orthogonalEdgeStyle;rounded=0;orthogonalLoop=1;jettySize=auto;html=1;exitX=0.5;exitY=1;exitDx=0;exitDy=0;entryX=0.5;entryY=0;entryDx=0;entryDy=0;" parent="1" source="LLEbzpNAezLbrJG5FlfY-43" target="LLEbzpNAezLbrJG5FlfY-45" edge="1">
          <mxGeometry relative="1" as="geometry" />
        </mxCell>
        <mxCell id="LLEbzpNAezLbrJG5FlfY-43" value="" style="rounded=1;whiteSpace=wrap;html=1;" parent="1" vertex="1">
          <mxGeometry x="680" y="510" width="120" height="90" as="geometry" />
        </mxCell>
        <mxCell id="LLEbzpNAezLbrJG5FlfY-44" value="&lt;font style=&quot;font-size: 24px;&quot;&gt;Test Integ&lt;/font&gt;" style="text;html=1;align=center;verticalAlign=middle;whiteSpace=wrap;rounded=0;" parent="1" vertex="1">
          <mxGeometry x="690" y="535" width="100" height="40" as="geometry" />
        </mxCell>
        <mxCell id="LLEbzpNAezLbrJG5FlfY-68" style="edgeStyle=orthogonalEdgeStyle;rounded=0;orthogonalLoop=1;jettySize=auto;html=1;exitX=1;exitY=0.5;exitDx=0;exitDy=0;entryX=0;entryY=0.5;entryDx=0;entryDy=0;" parent="1" source="LLEbzpNAezLbrJG5FlfY-45" target="LLEbzpNAezLbrJG5FlfY-47" edge="1">
          <mxGeometry relative="1" as="geometry" />
        </mxCell>
        <mxCell id="LLEbzpNAezLbrJG5FlfY-45" value="" style="rounded=1;whiteSpace=wrap;html=1;" parent="1" vertex="1">
          <mxGeometry x="680" y="670" width="120" height="90" as="geometry" />
        </mxCell>
        <mxCell id="LLEbzpNAezLbrJG5FlfY-46" value="&lt;font style=&quot;font-size: 24px;&quot;&gt;Análise de Cód&lt;/font&gt;" style="text;html=1;align=center;verticalAlign=middle;whiteSpace=wrap;rounded=0;" parent="1" vertex="1">
          <mxGeometry x="690" y="695" width="100" height="40" as="geometry" />
        </mxCell>
        <mxCell id="LLEbzpNAezLbrJG5FlfY-47" value="" style="rounded=1;whiteSpace=wrap;html=1;" parent="1" vertex="1">
          <mxGeometry x="890" y="670" width="120" height="90" as="geometry" />
        </mxCell>
        <mxCell id="LLEbzpNAezLbrJG5FlfY-48" value="&lt;font style=&quot;font-size: 24px;&quot;&gt;Sonnar Qube&lt;/font&gt;" style="text;html=1;align=center;verticalAlign=middle;whiteSpace=wrap;rounded=0;" parent="1" vertex="1">
          <mxGeometry x="900" y="695" width="100" height="40" as="geometry" />
        </mxCell>
        <mxCell id="LLEbzpNAezLbrJG5FlfY-72" style="edgeStyle=orthogonalEdgeStyle;rounded=0;orthogonalLoop=1;jettySize=auto;html=1;exitX=1;exitY=0.5;exitDx=0;exitDy=0;entryX=0;entryY=0.5;entryDx=0;entryDy=0;" parent="1" source="LLEbzpNAezLbrJG5FlfY-49" target="LLEbzpNAezLbrJG5FlfY-52" edge="1">
          <mxGeometry relative="1" as="geometry" />
        </mxCell>
        <mxCell id="LLEbzpNAezLbrJG5FlfY-49" value="" style="rounded=1;whiteSpace=wrap;html=1;" parent="1" vertex="1">
          <mxGeometry x="920" y="195" width="120" height="90" as="geometry" />
        </mxCell>
        <mxCell id="LLEbzpNAezLbrJG5FlfY-50" value="&lt;font style=&quot;font-size: 24px;&quot;&gt;Docker Lint&lt;/font&gt;" style="text;html=1;align=center;verticalAlign=middle;whiteSpace=wrap;rounded=0;" parent="1" vertex="1">
          <mxGeometry x="930" y="220" width="100" height="40" as="geometry" />
        </mxCell>
        <mxCell id="LLEbzpNAezLbrJG5FlfY-73" style="edgeStyle=orthogonalEdgeStyle;rounded=0;orthogonalLoop=1;jettySize=auto;html=1;exitX=1;exitY=0.5;exitDx=0;exitDy=0;entryX=0;entryY=0.5;entryDx=0;entryDy=0;" parent="1" source="LLEbzpNAezLbrJG5FlfY-52" target="LLEbzpNAezLbrJG5FlfY-54" edge="1">
          <mxGeometry relative="1" as="geometry" />
        </mxCell>
        <mxCell id="LLEbzpNAezLbrJG5FlfY-52" value="" style="rounded=1;whiteSpace=wrap;html=1;" parent="1" vertex="1">
          <mxGeometry x="1162" y="195" width="120" height="90" as="geometry" />
        </mxCell>
        <mxCell id="LLEbzpNAezLbrJG5FlfY-53" value="&lt;font style=&quot;font-size: 24px;&quot;&gt;Docker Build&lt;/font&gt;" style="text;html=1;align=center;verticalAlign=middle;whiteSpace=wrap;rounded=0;" parent="1" vertex="1">
          <mxGeometry x="1172" y="220" width="100" height="40" as="geometry" />
        </mxCell>
        <mxCell id="LLEbzpNAezLbrJG5FlfY-74" style="edgeStyle=orthogonalEdgeStyle;rounded=0;orthogonalLoop=1;jettySize=auto;html=1;exitX=1;exitY=0.5;exitDx=0;exitDy=0;entryX=0;entryY=0.5;entryDx=0;entryDy=0;" parent="1" source="LLEbzpNAezLbrJG5FlfY-54" target="LLEbzpNAezLbrJG5FlfY-56" edge="1">
          <mxGeometry relative="1" as="geometry" />
        </mxCell>
        <mxCell id="LLEbzpNAezLbrJG5FlfY-75" style="edgeStyle=orthogonalEdgeStyle;rounded=0;orthogonalLoop=1;jettySize=auto;html=1;exitX=0.5;exitY=1;exitDx=0;exitDy=0;entryX=0.5;entryY=0;entryDx=0;entryDy=0;" parent="1" source="LLEbzpNAezLbrJG5FlfY-54" target="LLEbzpNAezLbrJG5FlfY-58" edge="1">
          <mxGeometry relative="1" as="geometry" />
        </mxCell>
        <mxCell id="LLEbzpNAezLbrJG5FlfY-54" value="" style="rounded=1;whiteSpace=wrap;html=1;" parent="1" vertex="1">
          <mxGeometry x="1391" y="195" width="120" height="90" as="geometry" />
        </mxCell>
        <mxCell id="LLEbzpNAezLbrJG5FlfY-55" value="&lt;font style=&quot;font-size: 24px;&quot;&gt;Scan Qualidade&lt;/font&gt;" style="text;html=1;align=center;verticalAlign=middle;whiteSpace=wrap;rounded=0;" parent="1" vertex="1">
          <mxGeometry x="1401" y="220" width="100" height="40" as="geometry" />
        </mxCell>
        <mxCell id="LLEbzpNAezLbrJG5FlfY-76" style="edgeStyle=orthogonalEdgeStyle;rounded=0;orthogonalLoop=1;jettySize=auto;html=1;exitX=0.5;exitY=1;exitDx=0;exitDy=0;entryX=0.5;entryY=0;entryDx=0;entryDy=0;" parent="1" source="LLEbzpNAezLbrJG5FlfY-56" target="LLEbzpNAezLbrJG5FlfY-60" edge="1">
          <mxGeometry relative="1" as="geometry" />
        </mxCell>
        <mxCell id="LLEbzpNAezLbrJG5FlfY-83" style="edgeStyle=orthogonalEdgeStyle;rounded=0;orthogonalLoop=1;jettySize=auto;html=1;exitX=1;exitY=0.5;exitDx=0;exitDy=0;entryX=0;entryY=0.5;entryDx=0;entryDy=0;" parent="1" source="LLEbzpNAezLbrJG5FlfY-56" target="LLEbzpNAezLbrJG5FlfY-77" edge="1">
          <mxGeometry relative="1" as="geometry" />
        </mxCell>
        <mxCell id="LLEbzpNAezLbrJG5FlfY-56" value="" style="rounded=1;whiteSpace=wrap;html=1;" parent="1" vertex="1">
          <mxGeometry x="1606" y="195" width="120" height="90" as="geometry" />
        </mxCell>
        <mxCell id="LLEbzpNAezLbrJG5FlfY-57" value="&lt;font style=&quot;font-size: 24px;&quot;&gt;Docker Push&lt;/font&gt;" style="text;html=1;align=center;verticalAlign=middle;whiteSpace=wrap;rounded=0;" parent="1" vertex="1">
          <mxGeometry x="1616" y="220" width="100" height="40" as="geometry" />
        </mxCell>
        <mxCell id="LLEbzpNAezLbrJG5FlfY-58" value="" style="rounded=1;whiteSpace=wrap;html=1;" parent="1" vertex="1">
          <mxGeometry x="1392" y="390" width="120" height="90" as="geometry" />
        </mxCell>
        <mxCell id="LLEbzpNAezLbrJG5FlfY-59" value="&lt;font style=&quot;font-size: 24px;&quot;&gt;Trivy&lt;/font&gt;" style="text;html=1;align=center;verticalAlign=middle;whiteSpace=wrap;rounded=0;" parent="1" vertex="1">
          <mxGeometry x="1402" y="415" width="100" height="40" as="geometry" />
        </mxCell>
        <mxCell id="LLEbzpNAezLbrJG5FlfY-60" value="" style="rounded=1;whiteSpace=wrap;html=1;" parent="1" vertex="1">
          <mxGeometry x="1605" y="390" width="120" height="90" as="geometry" />
        </mxCell>
        <mxCell id="LLEbzpNAezLbrJG5FlfY-61" value="&lt;font style=&quot;font-size: 24px;&quot;&gt;Docker Hub&lt;/font&gt;" style="text;html=1;align=center;verticalAlign=middle;whiteSpace=wrap;rounded=0;" parent="1" vertex="1">
          <mxGeometry x="1615" y="415" width="100" height="40" as="geometry" />
        </mxCell>
        <mxCell id="LLEbzpNAezLbrJG5FlfY-84" style="edgeStyle=orthogonalEdgeStyle;rounded=0;orthogonalLoop=1;jettySize=auto;html=1;exitX=1;exitY=0.5;exitDx=0;exitDy=0;entryX=0;entryY=0.5;entryDx=0;entryDy=0;" parent="1" source="LLEbzpNAezLbrJG5FlfY-77" target="LLEbzpNAezLbrJG5FlfY-79" edge="1">
          <mxGeometry relative="1" as="geometry" />
        </mxCell>
        <mxCell id="LLEbzpNAezLbrJG5FlfY-77" value="" style="rounded=1;whiteSpace=wrap;html=1;" parent="1" vertex="1">
          <mxGeometry x="1870" y="195" width="120" height="90" as="geometry" />
        </mxCell>
        <mxCell id="LLEbzpNAezLbrJG5FlfY-78" value="&lt;font style=&quot;font-size: 24px;&quot;&gt;Deploy Homolog&lt;/font&gt;" style="text;html=1;align=center;verticalAlign=middle;whiteSpace=wrap;rounded=0;" parent="1" vertex="1">
          <mxGeometry x="1880" y="220" width="100" height="40" as="geometry" />
        </mxCell>
        <mxCell id="LLEbzpNAezLbrJG5FlfY-85" style="edgeStyle=orthogonalEdgeStyle;rounded=0;orthogonalLoop=1;jettySize=auto;html=1;exitX=1;exitY=0.5;exitDx=0;exitDy=0;entryX=0;entryY=0.5;entryDx=0;entryDy=0;" parent="1" source="LLEbzpNAezLbrJG5FlfY-79" target="LLEbzpNAezLbrJG5FlfY-81" edge="1">
          <mxGeometry relative="1" as="geometry" />
        </mxCell>
        <mxCell id="LLEbzpNAezLbrJG5FlfY-79" value="" style="rounded=1;whiteSpace=wrap;html=1;" parent="1" vertex="1">
          <mxGeometry x="2080" y="195" width="120" height="90" as="geometry" />
        </mxCell>
        <mxCell id="LLEbzpNAezLbrJG5FlfY-80" value="&lt;font style=&quot;font-size: 24px;&quot;&gt;Test&lt;/font&gt;" style="text;html=1;align=center;verticalAlign=middle;whiteSpace=wrap;rounded=0;" parent="1" vertex="1">
          <mxGeometry x="2090" y="220" width="100" height="40" as="geometry" />
        </mxCell>
        <mxCell id="LLEbzpNAezLbrJG5FlfY-81" value="" style="rounded=1;whiteSpace=wrap;html=1;" parent="1" vertex="1">
          <mxGeometry x="2300" y="195" width="120" height="90" as="geometry" />
        </mxCell>
        <mxCell id="LLEbzpNAezLbrJG5FlfY-82" value="&lt;font style=&quot;font-size: 24px;&quot;&gt;Deploy&lt;br&gt;Prod&lt;/font&gt;" style="text;html=1;align=center;verticalAlign=middle;whiteSpace=wrap;rounded=0;" parent="1" vertex="1">
          <mxGeometry x="2310" y="220" width="100" height="40" as="geometry" />
        </mxCell>
      </root>
    </mxGraphModel>
  </diagram>
</mxfile>
